<!-- Generated by IcoMoon.io -->
<svg version="1.1" xmlns="http://www.w3.org/2000/svg" width="32" height="32" viewBox="0 0 32 32">
<title>icon-download-pdf</title>
<path d="M10.531 0.087c-0.1 0.050-1.588 1.488-3.294 3.206-2.406 2.406-3.125 3.163-3.175 3.331-0.037 0.138-0.063 1.95-0.063 4.856v4.644h-0.269c-0.356 0-0.669 0.181-0.837 0.475l-0.144 0.244v6.719h-1.006c-1.119 0-1.325 0.050-1.569 0.387-0.175 0.25-0.219 0.663-0.087 0.913 0.1 0.194 5.037 6.331 5.438 6.75 0.244 0.262 0.475 0.387 0.725 0.387 0.388 0 0.606-0.175 1.3-1.038l0.669-0.837h17.606l0.244-0.137c0.156-0.087 0.288-0.231 0.369-0.394 0.119-0.25 0.125-0.387 0.125-4.387v-4.131l1.956-0.025 1.95-0.019 0.35-0.163c0.425-0.2 0.75-0.512 0.981-0.95l0.169-0.325v-9.375l-0.169-0.325c-0.212-0.394-0.525-0.719-0.881-0.906-0.256-0.137-0.325-0.144-2.306-0.162l-2.050-0.019v-4.006c0-3.881-0.006-4.019-0.125-4.269-0.081-0.162-0.212-0.306-0.369-0.394l-0.244-0.138h-7.55c-6.244 0.006-7.588 0.019-7.744 0.087zM24.675 5.325l-0.019 3.456-12 0.063-0.319 0.169c-0.412 0.219-0.8 0.656-0.944 1.069-0.106 0.3-0.113 0.65-0.113 4.825 0 5.212-0.031 4.919 0.588 5.538 0.631 0.631 0.106 0.581 6.9 0.606l5.919 0.019v7.181h-14.938l1.225-1.506c0.675-0.825 1.294-1.606 1.375-1.725 0.281-0.419 0.156-1.031-0.269-1.313-0.137-0.094-0.35-0.119-1.238-0.144l-1.063-0.031-0.031-3.419c-0.031-3.331-0.037-3.419-0.162-3.594-0.269-0.369-0.4-0.394-2.138-0.394h-1.575l0.013-4.144 0.019-4.138 2.688-0.031c2.963-0.037 2.85-0.019 3.112-0.438 0.137-0.213 0.137-0.263 0.156-2.862l0.019-2.638h12.806l-0.012 3.45zM10 4.594v1.344h-2.781l1.344-1.344c0.738-0.737 1.363-1.344 1.387-1.344 0.031 0 0.050 0.606 0.050 1.344zM30.113 14.919l-0.019 4.238-8.4 0.019c-6.156 0.006-8.419-0.006-8.481-0.056-0.075-0.056-0.088-0.8-0.088-4.213 0-2.275 0.019-4.156 0.044-4.175 0.019-0.025 3.844-0.044 8.5-0.044h8.456l-0.012 4.231zM7.888 21.356c0.019 3.231 0.025 3.369 0.144 3.575 0.225 0.381 0.412 0.475 1.031 0.494l0.55 0.025-1.625 2.006c-0.9 1.106-1.65 2.038-1.675 2.063-0.025 0.031-0.8-0.869-1.712-2l-1.663-2.050 0.512-0.031c0.606-0.038 0.85-0.156 1.044-0.5 0.131-0.231 0.131-0.3 0.131-3.587v-3.35h3.244l0.019 3.356z"></path>
<path d="M15.063 11.856c-0.375 0.194-0.381 0.287-0.363 3.194l0.019 2.588 0.206 0.181c0.262 0.238 0.556 0.244 0.819 0.019l0.188-0.156 0.037-1.838 0.688-0.037c0.575-0.025 0.738-0.063 1-0.194 0.387-0.2 0.806-0.644 0.988-1.037 0.2-0.438 0.188-1.119-0.031-1.581-0.206-0.45-0.594-0.838-1.044-1.044-0.319-0.15-0.431-0.162-1.319-0.188-0.844-0.019-1-0.006-1.188 0.094zM17.169 13.162c0.094 0.069 0.225 0.231 0.294 0.363 0.1 0.2 0.106 0.275 0.044 0.475-0.038 0.131-0.156 0.313-0.262 0.4-0.175 0.144-0.244 0.162-0.719 0.162h-0.525v-1.575l0.494 0.019c0.381 0.019 0.538 0.056 0.675 0.156z"></path>
<path d="M20.081 11.844c-0.106 0.044-0.225 0.137-0.262 0.213-0.044 0.081-0.069 1.019-0.069 2.85v2.731l0.375 0.375 1.113-0.025c1.381-0.031 1.65-0.113 2.238-0.7 0.637-0.637 0.9-1.356 0.9-2.431 0-1.019-0.256-1.725-0.825-2.338-0.356-0.375-0.788-0.6-1.325-0.7s-1.894-0.088-2.144 0.025zM22.094 13.069c0.663 0.181 0.981 0.719 1.019 1.713 0.019 0.525 0 0.681-0.113 0.988-0.275 0.731-0.65 0.975-1.481 0.981h-0.519v-3.75h0.425c0.231 0 0.531 0.031 0.669 0.069z"></path>
<path d="M25.688 11.819c-0.381 0.15-0.375 0.075-0.375 3.075v2.744l0.181 0.181c0.306 0.3 0.788 0.219 0.975-0.163 0.069-0.163 0.094-0.431 0.094-1.181v-0.975h0.556c0.712 0 0.906-0.044 1.1-0.238 0.225-0.219 0.219-0.619-0.006-0.85-0.163-0.156-0.194-0.162-0.906-0.162h-0.744v-1.25h0.806c0.75 0 0.825-0.012 0.975-0.144 0.106-0.088 0.175-0.225 0.2-0.394 0.031-0.225 0.006-0.287-0.156-0.469l-0.188-0.213-1.181-0.012c-0.681-0.006-1.238 0.012-1.331 0.050z"></path>
</svg>
